<svg width="41" height="47" viewBox="0 0 41 47" fill="none" xmlns="http://www.w3.org/2000/svg">
<path d="M38.6482 20.0053L6.77299 1.16244C4.18313 -0.366834 0.215942 1.11717 0.215942 4.90368V42.5813C0.215942 45.9767 3.9006 48.0221 6.77299 46.3208L38.6482 27.4878C41.4916 25.8092 41.5006 21.6804 38.6482 20.0053ZM29.3645 26.2383L10.3834 37.4521C8.4564 38.5975 6.01143 37.2013 6.01143 34.9576V12.5211C6.01143 10.2774 8.4564 8.88485 10.3834 10.0275L29.3645 21.2503C29.798 21.5066 30.1572 21.8714 30.4067 22.3087C30.6562 22.746 30.7874 23.2408 30.7874 23.7443C30.7874 24.2478 30.6562 24.7426 30.4067 25.1799C30.1572 25.6173 29.798 25.9821 29.3645 26.2383Z" fill="white" fill-opacity="0.5"/>
<path d="M10.3834 10.0293L29.3646 21.2503C29.798 21.5066 30.1572 21.8714 30.4067 22.3087C30.6562 22.7461 30.7874 23.2409 30.7874 23.7443C30.7874 24.2478 30.6562 24.7426 30.4067 25.18C30.1572 25.6173 29.798 25.9821 29.3646 26.2384L10.3834 37.4521C8.45644 38.5975 6.01147 37.2013 6.01147 34.9576V12.5211C6.01147 10.2792 8.45644 8.88668 10.3834 10.0293Z" fill="white"/>
</svg>
